<svg viewBox="0 0 58 70" id="icon" xmlns="http://www.w3.org/2000/svg">
<path fill-rule="evenodd" clip-rule="evenodd" d="M21.2857 4C18.1421 4 15.5714 6.56864 15.5714 9.76471V15.5294H42.4286V9.76471C42.4286 6.56862 39.858 4 36.7143 4H21.2857ZM46.4286 15.5294V9.76471C46.4286 4.38413 42.0917 0 36.7143 0H21.2857C15.9084 0 11.5714 4.38411 11.5714 9.76471V15.5294H2C0.89543 15.5294 0 16.4248 0 17.5294C0 18.634 0.89543 19.5294 2 19.5294H3.85714V60.2353C3.85714 65.616 8.19413 70 13.5714 70H44.4286C49.806 70 54.1429 65.616 54.1429 60.2353V19.5294H56C57.1046 19.5294 58 18.634 58 17.5294C58 16.4248 57.1046 15.5294 56 15.5294H46.4286ZM50.1429 19.5294H7.85714V60.2353C7.85714 63.4315 10.4278 66 13.5714 66H44.4286C47.5723 66 50.1429 63.4315 50.1429 60.2353V19.5294ZM21.2857 31.0588C22.3903 31.0588 23.2857 31.9543 23.2857 33.0588V52.4706C23.2857 53.5752 22.3903 54.4706 21.2857 54.4706C20.1811 54.4706 19.2857 53.5752 19.2857 52.4706V33.0588C19.2857 31.9543 20.1811 31.0588 21.2857 31.0588ZM36.7143 31.0588C37.8189 31.0588 38.7143 31.9543 38.7143 33.0588V52.4706C38.7143 53.5752 37.8189 54.4706 36.7143 54.4706C35.6097 54.4706 34.7143 53.5752 34.7143 52.4706V33.0588C34.7143 31.9543 35.6097 31.0588 36.7143 31.0588Z" />
</svg>
